<svg width="20" height="18" viewBox="0 0 20 18" fill="none" xmlns="http://www.w3.org/2000/svg">
<path d="M14.1081 0C17.064 0 19.4595 2.43243 19.4595 5.83784C19.4595 12.6486 12.1622 16.5405 9.72973 18C7.2973 16.5405 0 12.6486 0 5.83784C0 2.43243 2.43243 0 5.35135 0C7.16108 0 8.75676 0.972973 9.72973 1.94595C10.7027 0.972973 12.2984 0 14.1081 0ZM10.6385 15.1823C11.4957 14.6413 12.2692 14.1032 12.9931 13.5272C15.8935 11.2213 17.5135 8.7013 17.5135 5.83784C17.5135 3.54162 16.0181 1.94595 14.1081 1.94595C13.0612 1.94595 11.9286 2.50054 11.1055 3.32173L9.72973 4.69751L8.35395 3.32173C7.53081 2.50054 6.39827 1.94595 5.35135 1.94595C3.46378 1.94595 1.94595 3.55719 1.94595 5.83784C1.94595 8.70227 3.56692 11.2213 6.46541 13.5272C7.19027 14.1032 7.96378 14.6413 8.82097 15.1813C9.11189 15.3652 9.39989 15.5413 9.72973 15.7378C10.0596 15.5413 10.3476 15.3652 10.6385 15.1823V15.1823Z" fill="#EFC62E"/>
</svg>
