<svg width="86" height="30" viewBox="0 0 86 30" fill="none" xmlns="http://www.w3.org/2000/svg">
<g filter="url(#filter0_d_15_185)">
<path d="M21.162 21L21.136 8.936L15.156 18.92H13.648L7.668 9.092V21H4.444V2.8H7.226L14.454 14.864L21.552 2.8H24.334L24.36 21H21.162ZM58.7218 7.116L52.7678 21H49.4138L43.4598 7.116H46.8398L51.1558 17.412L55.6018 7.116H58.7218ZM60.7531 7.116H64.0031V21H60.7531V7.116ZM62.3911 4.828C61.8018 4.828 61.3078 4.646 60.9091 4.282C60.5104 3.90067 60.3111 3.43267 60.3111 2.878C60.3111 2.32333 60.5104 1.864 60.9091 1.5C61.3078 1.11867 61.8018 0.928 62.3911 0.928C62.9804 0.928 63.4744 1.11 63.8731 1.474C64.2718 1.82067 64.4711 2.26267 64.4711 2.8C64.4711 3.372 64.2718 3.85733 63.8731 4.256C63.4918 4.63733 62.9978 4.828 62.3911 4.828ZM81.3207 14.136C81.3207 14.3613 81.3034 14.682 81.2687 15.098H70.3747C70.5654 16.1207 71.0594 16.9353 71.8567 17.542C72.6714 18.1313 73.6767 18.426 74.8727 18.426C76.3981 18.426 77.6547 17.9233 78.6427 16.918L80.3847 18.92C79.7607 19.6653 78.9721 20.2287 78.0187 20.61C77.0654 20.9913 75.9907 21.182 74.7947 21.182C73.2694 21.182 71.9261 20.8787 70.7647 20.272C69.6034 19.6653 68.7021 18.8247 68.0607 17.75C67.4367 16.658 67.1247 15.4273 67.1247 14.058C67.1247 12.706 67.4281 11.4927 68.0347 10.418C68.6587 9.326 69.5167 8.47667 70.6087 7.87C71.7007 7.26333 72.9314 6.96 74.3007 6.96C75.6527 6.96 76.8574 7.26333 77.9147 7.87C78.9894 8.45933 79.8214 9.3 80.4107 10.392C81.0174 11.4667 81.3207 12.7147 81.3207 14.136ZM74.3007 9.56C73.2607 9.56 72.3767 9.872 71.6487 10.496C70.9381 11.1027 70.5047 11.9173 70.3487 12.94H78.2267C78.0881 11.9347 77.6634 11.12 76.9527 10.496C76.2421 9.872 75.3581 9.56 74.3007 9.56Z" fill="white"/>
<path d="M35.204 21.182C33.8 21.182 32.5347 20.8787 31.408 20.272C30.2814 19.6653 29.3974 18.8247 28.756 17.75C28.132 16.658 27.82 15.4273 27.82 14.058C27.82 12.6887 28.132 11.4667 28.756 10.392C29.3974 9.31733 30.2814 8.47667 31.408 7.87C32.5347 7.26333 33.8 6.96 35.204 6.96C36.6254 6.96 37.8994 7.26333 39.026 7.87C40.1527 8.47667 41.028 9.31733 41.652 10.392C42.2934 11.4667 42.614 12.6887 42.614 14.058C42.614 15.4273 42.2934 16.658 41.652 17.75C41.028 18.8247 40.1527 19.6653 39.026 20.272C37.8994 20.8787 36.6254 21.182 35.204 21.182ZM35.204 18.4C36.4 18.4 37.388 18.0013 38.168 17.204C38.948 16.4067 39.338 15.358 39.338 14.058C39.338 12.758 38.948 11.7093 38.168 10.912C37.388 10.1147 36.4 9.716 35.204 9.716C34.008 9.716 33.02 10.1147 32.24 10.912C31.4774 11.7093 31.096 12.758 31.096 14.058C31.096 15.358 31.4774 16.4067 32.24 17.204C33.02 18.0013 34.008 18.4 35.204 18.4Z" fill="#EFC62E"/>
</g>
<defs>
<filter id="filter0_d_15_185" x="0.443848" y="0.927979" width="84.877" height="28.2539" filterUnits="userSpaceOnUse" color-interpolation-filters="sRGB">
<feFlood flood-opacity="0" result="BackgroundImageFix"/>
<feColorMatrix in="SourceAlpha" type="matrix" values="0 0 0 0 0 0 0 0 0 0 0 0 0 0 0 0 0 0 127 0" result="hardAlpha"/>
<feOffset dy="4"/>
<feGaussianBlur stdDeviation="2"/>
<feComposite in2="hardAlpha" operator="out"/>
<feColorMatrix type="matrix" values="0 0 0 0 0 0 0 0 0 0 0 0 0 0 0 0 0 0 0.25 0"/>
<feBlend mode="normal" in2="BackgroundImageFix" result="effect1_dropShadow_15_185"/>
<feBlend mode="normal" in="SourceGraphic" in2="effect1_dropShadow_15_185" result="shape"/>
</filter>
</defs>
</svg>
