<svg width="13" height="18" viewBox="0 0 13 18" fill="none" xmlns="http://www.w3.org/2000/svg">
<path fill-rule="evenodd" clip-rule="evenodd" d="M0 17.5946C0.00715257 17.6562 0.0267417 17.7158 0.0577839 17.7699C0.0977811 17.8396 0.155387 17.8975 0.224828 17.9379C0.294269 17.9783 0.373106 17.9997 0.453436 18C0.533765 18.0003 0.612765 17.9795 0.682517 17.9397L6.41279 14.6648L12.1431 17.9397C12.2128 17.9795 12.2918 18.0003 12.3721 18C12.4525 17.9997 12.5313 17.9783 12.6008 17.9379C12.6702 17.8975 12.7278 17.8396 12.7678 17.7699C12.8078 17.7002 12.8288 17.6213 12.8286 17.541L12.8286 1.14441e-05H0L0 17.5946ZM1.83004 15.1726L1.83004 1.83311H10.9955L10.9955 15.1726L6.41279 12.5531L1.83004 15.1726Z" fill="white"/>
</svg>
