<svg width="18" height="18" viewBox="0 0 18 18" fill="none" xmlns="http://www.w3.org/2000/svg">
<path d="M7.9748 0C12.3769 0 15.9496 3.57271 15.9496 7.9748C15.9496 12.3769 12.3769 15.9496 7.9748 15.9496C3.57271 15.9496 0 12.3769 0 7.9748C0 3.57271 3.57271 0 7.9748 0ZM7.9748 14.1774C11.4013 14.1774 14.1774 11.4013 14.1774 7.9748C14.1774 4.54741 11.4013 1.77218 7.9748 1.77218C4.54741 1.77218 1.77218 4.54741 1.77218 7.9748C1.77218 11.4013 4.54741 14.1774 7.9748 14.1774ZM15.4933 14.2403L18 16.7462L16.7462 18L14.2403 15.4933L15.4933 14.2403Z" fill="#5E5F61"/>
</svg>
